<?xml version="1.0" encoding="UTF-8"?>
<svg id="Layer_1" data-name="Layer 1" xmlns="http://www.w3.org/2000/svg" viewBox="0 0 191.72 110.81">
  <defs>
    <style>
      .cls-1 {
        fill: #fff;
      }

      .cls-2 {
        fill: #f08821;
      }

      .cls-3 {
        fill: #656464;
      }

      .cls-4 {
        fill: #293474;
      }
    </style>
  </defs>
  <g>
    <path class="cls-2" d="M50.32,.02c9.65,10.17,18.83,19.85,28.17,29.69-9.38,9.95-18.4,19.51-28,29.7H191.58V.02H50.32Z"/>
    <path class="cls-4" d="M35.72,0H0V59.45H35.81c9.25-9.75,18.67-19.69,28.24-29.78C54.24,19.4,44.86,9.56,35.72,0Z"/>
    <path class="cls-1" d="M38.18,38.33v8.52H6.47V9.45h31.16v8.52H14.99v5.41h21.82v8.52H14.99v6.43h23.19Z"/>
    <path class="cls-1" d="M138.2,24.28c0,4.1-1.51,7.85-4.25,10.58-2.74,2.72-6.52,4.22-10.64,4.22h-13.43v7.78h-8.52V9.45h8.52v.03h13.43c4.12,0,7.9,1.5,10.64,4.22,2.74,2.73,4.25,6.48,4.25,10.58Zm-8.52,0c0-3.75-2.56-6.28-6.36-6.28h-13.43v12.55h13.43c3.81,0,6.36-2.52,6.36-6.28Z"/>
    <g>
      <g>
        <path class="cls-4" d="M7.72,73.75v4.68H26.83v7.37H7.72v12.93H.35v-32.35H27.55v7.37H7.72Z"/>
        <path class="cls-4" d="M58.32,91.36v7.37H30.89v-32.35h26.95v7.37h-19.57v4.68h18.87v7.37h-18.87v5.56h20.05Z"/>
        <path class="cls-4" d="M84.78,90.41l7.18,8.26h-8.47l-5.9-7.61h-7.95v7.67h-7.37v-32.35h7.37v.02h10.99c3.43,0,6.58,1.25,8.86,3.52,2.28,2.27,3.54,5.4,3.54,8.81s-1.26,6.54-3.54,8.81c-1.32,1.31-2.92,2.28-4.7,2.87Zm.87-11.68c0-2.97-2.02-4.96-5.03-4.96h-10.99v9.92h10.99c3.01,0,5.03-1.99,5.03-4.96Z"/>
        <path class="cls-4" d="M118.84,90.41l7.18,8.26h-8.47l-5.9-7.61h-7.95v7.67h-7.37v-32.35h7.37v.02h10.99c3.43,0,6.58,1.25,8.86,3.52,2.28,2.27,3.54,5.4,3.54,8.81s-1.26,6.54-3.54,8.81c-1.32,1.31-2.92,2.28-4.7,2.87Zm.87-11.68c0-2.97-2.02-4.96-5.03-4.96h-10.99v9.92h10.99c3.01,0,5.03-1.99,5.03-4.96Z"/>
        <path class="cls-4" d="M157.8,91.36v7.37h-27.43v-32.35h26.95v7.37h-19.57v4.68h18.87v7.37h-18.87v5.56h20.05Z"/>
      </g>
      <g>
        <path class="cls-4" d="M163.55,82.1v-3.3c0-.99,.27-1.8,.81-2.44,.54-.64,1.42-1.21,2.63-1.7l2.37-.97c.61-.25,1.06-.54,1.33-.89s.42-.78,.42-1.3c0-.48-.17-.89-.5-1.23-.33-.34-.82-.5-1.46-.5s-1.15,.17-1.47,.53c-.33,.35-.49,.82-.49,1.41h-3.84c0-.99,.22-1.87,.66-2.64,.44-.77,1.09-1.37,1.95-1.82,.86-.44,1.93-.66,3.19-.66s2.31,.21,3.17,.63c.86,.42,1.52,.99,1.97,1.71,.45,.72,.67,1.54,.67,2.44v.25c0,1.17-.33,2.13-.98,2.89-.65,.76-1.71,1.44-3.16,2.04l-2.37,.97c-.34,.14-.59,.29-.76,.45-.16,.17-.25,.39-.25,.66v.17h7.48v3.3h-11.36Z"/>
        <path class="cls-4" d="M184.63,82.52c-1.27,0-2.35-.2-3.25-.59-.9-.39-1.63-.93-2.2-1.61-.57-.68-.99-1.46-1.26-2.35-.27-.89-.41-1.82-.41-2.79v-1.2c0-1.37,.26-2.62,.77-3.73,.51-1.11,1.3-2,2.35-2.66,1.05-.66,2.39-.99,3.99-.99s2.94,.33,3.98,.99c1.05,.66,1.83,1.55,2.34,2.66,.51,1.11,.77,2.36,.77,3.73v1.2c0,.98-.14,1.91-.41,2.79-.27,.89-.69,1.67-1.25,2.35-.56,.68-1.29,1.22-2.19,1.61-.9,.39-1.98,.59-3.25,.59Zm0-3.55c1.05,0,1.84-.36,2.35-1.07,.51-.71,.77-1.82,.77-3.3,0-1.58-.26-2.72-.79-3.41-.53-.69-1.3-1.04-2.33-1.04s-1.82,.35-2.35,1.04c-.53,.69-.79,1.82-.79,3.37s.26,2.61,.78,3.33c.52,.72,1.31,1.08,2.36,1.08Z"/>
        <path class="cls-4" d="M163.55,98.8v-3.3c0-.99,.27-1.8,.81-2.44,.54-.64,1.42-1.21,2.63-1.7l2.37-.97c.61-.25,1.06-.54,1.33-.89s.42-.78,.42-1.3c0-.48-.17-.89-.5-1.23-.33-.34-.82-.5-1.46-.5s-1.15,.17-1.47,.53c-.33,.35-.49,.82-.49,1.41h-3.84c0-.99,.22-1.87,.66-2.64,.44-.77,1.09-1.37,1.95-1.82,.86-.44,1.93-.66,3.19-.66s2.31,.21,3.17,.63c.86,.42,1.52,.99,1.97,1.71,.45,.72,.67,1.54,.67,2.44v.25c0,1.17-.33,2.13-.98,2.89-.65,.76-1.71,1.44-3.16,2.04l-2.37,.97c-.34,.14-.59,.29-.76,.45-.16,.17-.25,.39-.25,.66v.17h7.48v3.3h-11.36Z"/>
        <path class="cls-4" d="M184.14,99.25c-1.54,0-2.8-.32-3.79-.96-.99-.64-1.72-1.5-2.2-2.59-.48-1.09-.72-2.3-.72-3.65v-.83c0-2.54,.68-4.45,2.03-5.71,1.35-1.27,3.36-1.9,6.02-1.9,1.1,0,2.16,.05,3.18,.16v3.22c-.47-.04-1-.08-1.58-.11s-1.16-.05-1.73-.05c-1.45,0-2.49,.29-3.11,.86-.62,.57-.99,1.45-1.1,2.63,.44-.56,1.01-.99,1.7-1.28,.69-.29,1.48-.43,2.36-.43,1.1,0,2.05,.21,2.85,.63,.8,.42,1.43,1.01,1.87,1.76,.44,.76,.66,1.66,.66,2.7,0,1.13-.27,2.11-.82,2.94-.55,.83-1.31,1.47-2.27,1.93s-2.09,.68-3.35,.68Zm-.13-3.18c.85,0,1.52-.21,2.01-.63,.48-.42,.73-.97,.73-1.66s-.24-1.24-.72-1.66-1.13-.63-1.95-.63c-.74,0-1.39,.19-1.95,.57-.56,.38-.84,.95-.84,1.72,0,.67,.24,1.22,.72,1.65,.48,.43,1.15,.64,2.02,.64Z"/>
      </g>
    </g>
    <path class="cls-1" d="M162.4,46.88c-.88,.43-3.78,.43-4.51-.4-.79-1.45-1.4-2.77-2.61-3.06-1.52-.36-2.78,.26-4.19,.96-1.02,.51-3.61-1.36-3.51-2.55,.12-1.45,.4-3.05-.31-4.07-1.04-1.49-2.34-1.57-4.38-1.77-.55-.78-1.3-3.07-1.35-4.08,1.51-1.22,2.52-2.07,2.54-3.56,.03-1.78-.95-2.61-2.3-3.87-.45-.77,.26-3.67,1.29-3.97,1.3-.39,3.04-.61,3.8-1.45,1.07-1.2,1.04-2.71,.66-4.43-.25-1.12,2.37-3.14,3.42-2.7,1.37,.57,2.82,1.42,3.96,1.04,1.65-.55,2.32-1.74,2.97-3.24,.46-1.06,3.82-1.06,4.41-.08,.7,1.17,1.42,2.86,2.73,3.24,1.5,.43,2.67-.17,4.19-.95,.96-.49,3.61,1.29,3.55,2.37-.09,1.6-.53,3.03,.04,3.91,1.15,1.75,2.58,1.85,4.35,2.19,1.06,.29,2,3.4,1.18,4.2-1.08,1.05-2.22,2.23-2.16,3.27,.1,1.8,1.24,2.87,2.21,3.97,.72,.82-.23,3.9-1.29,4.09-1.56,.2-3.15,.41-3.97,1.69s-.58,2.49-.25,4.36c-.27,.89-2.53,2.53-3.43,2.66-1.59-.99-2.72-1.69-3.76-1.37-2.11,.64-2.58,1.58-3.26,3.59Z"/>
    <circle class="cls-2" cx="160.09" cy="28.05" r="9.71"/>
    <path class="cls-1" d="M83.68,9.61l-12.13,12.78c2.31,2.43,4.62,4.87,6.94,7.31-1.8,1.91-3.59,3.81-5.38,5.71l10.46,11.1h14.27l-17.55-18.47,17.6-18.44h-14.22Z"/>
  </g>
  <g>
    <path class="cls-3" d="M.71,104.37H1.98v6.35H.71v-6.35Z"/>
    <path class="cls-3" d="M2.98,104.37h1.79l.84,4.43,.83-4.43h1.79v6.35h-1.2v-4.73l-.94,4.73h-1.06l-.94-4.73v4.73h-1.11v-6.35Z"/>
    <path class="cls-3" d="M9.22,104.37h1.87c1.28,0,1.89,.56,1.89,1.75v.38c0,1.2-.61,1.76-1.89,1.76h-.6v2.46h-1.27v-6.35Zm1.87,2.79c.44,0,.62-.19,.62-.65v-.38c0-.45-.18-.64-.62-.64h-.6v1.68h.6Z"/>
    <path class="cls-3" d="M13.69,108.98v-4.61h1.27v4.68c0,.44,.22,.65,.64,.65s.64-.22,.64-.65v-4.68h1.22v4.61c0,1.15-.65,1.83-1.9,1.83s-1.89-.68-1.89-1.83Z"/>
    <path class="cls-3" d="M18.42,104.37h1.27v5.25h2.09v1.11h-3.36v-6.35Z"/>
    <path class="cls-3" d="M22.28,109.07v-.28h1.2v.28c0,.39,.2,.67,.65,.67,.4,0,.66-.25,.66-.67,0-.54-.22-.68-1.08-1.1-1.09-.53-1.41-1.07-1.41-1.96,0-1.03,.65-1.73,1.88-1.73s1.83,.7,1.83,1.75v.18h-1.2v-.17c0-.4-.18-.69-.63-.69-.39,0-.62,.25-.62,.64,0,.49,.24,.64,1.1,1.04,1.12,.54,1.39,1.1,1.39,2.01,0,1.07-.67,1.77-1.91,1.77s-1.87-.7-1.87-1.74Z"/>
    <path class="cls-3" d="M29.3,109.57h-1.42l-.21,1.15h-1.21l1.32-6.35h1.72l1.32,6.35h-1.3l-.21-1.15Zm-.2-1.09l-.52-2.84-.51,2.84h1.03Z"/>
    <path class="cls-3" d="M31.49,104.37h1.57l1.27,3.68v-3.68h1.13v6.35h-1.28l-1.56-4.52v4.52h-1.13v-6.35Z"/>
    <path class="cls-3" d="M36.46,104.37h1.93c1.23,0,1.9,.63,1.9,1.8v2.76c0,1.17-.66,1.8-1.9,1.8h-1.93v-6.35Zm1.91,5.25c.45,0,.64-.2,.64-.67v-2.8c0-.47-.19-.67-.64-.67h-.64v4.14h.64Z"/>
    <path class="cls-3" d="M41.07,108.98v-2.87c0-1.15,.68-1.83,1.92-1.83s1.92,.68,1.92,1.83v2.87c0,1.15-.68,1.83-1.92,1.83s-1.92-.68-1.92-1.83Zm2.58,.05v-2.96c0-.43-.23-.68-.65-.68s-.65,.25-.65,.68v2.96c0,.43,.23,.68,.65,.68s.65-.25,.65-.68Z"/>
    <path class="cls-3" d="M48.64,108.1l-1.53-3.73h1.37l.85,2.26,.86-2.26h1.25l-1.53,3.73v2.62h-1.27v-2.62Z"/>
    <path class="cls-3" d="M53.63,108.98v-2.87c0-1.18,.67-1.83,1.87-1.83s1.86,.65,1.86,1.83v.46h-1.2v-.51c0-.46-.23-.72-.64-.72s-.63,.25-.63,.72v2.96c0,.46,.23,.72,.63,.72s.64-.25,.64-.72v-.69h1.2v.64c0,1.18-.66,1.83-1.86,1.83s-1.87-.65-1.87-1.83Z"/>
    <path class="cls-3" d="M58.08,108.98v-2.87c0-1.15,.68-1.83,1.92-1.83s1.92,.68,1.92,1.83v2.87c0,1.15-.68,1.83-1.92,1.83s-1.92-.68-1.92-1.83Zm2.58,.05v-2.96c0-.43-.23-.68-.65-.68s-.65,.25-.65,.68v2.96c0,.43,.23,.68,.65,.68s.65-.25,.65-.68Z"/>
    <path class="cls-3" d="M62.83,104.37h1.57l1.27,3.68v-3.68h1.13v6.35h-1.28l-1.56-4.52v4.52h-1.13v-6.35Z"/>
    <path class="cls-3" d="M67.8,104.37h3.46v1.11h-2.19v1.47h1.74v1.11h-1.74v1.56h2.19v1.11h-3.46v-6.35Z"/>
    <path class="cls-3" d="M71.93,108.98v-2.87c0-1.18,.67-1.83,1.87-1.83s1.86,.65,1.86,1.83v.46h-1.2v-.51c0-.46-.23-.72-.64-.72s-.63,.25-.63,.72v2.96c0,.46,.23,.72,.63,.72s.64-.25,.64-.72v-.69h1.2v.64c0,1.18-.66,1.83-1.86,1.83s-1.87-.65-1.87-1.83Z"/>
    <path class="cls-3" d="M77.5,105.48h-1.33v-1.11h3.92v1.11h-1.33v5.25h-1.27v-5.25Z"/>
    <path class="cls-3" d="M82.78,109.57h-1.42l-.21,1.15h-1.21l1.32-6.35h1.72l1.32,6.35h-1.3l-.21-1.15Zm-.2-1.09l-.52-2.84-.51,2.84h1.03Z"/>
    <path class="cls-3" d="M84.97,104.37h1.57l1.27,3.68v-3.68h1.13v6.35h-1.28l-1.56-4.52v4.52h-1.13v-6.35Z"/>
    <path class="cls-3" d="M89.94,104.37h1.93c1.23,0,1.9,.63,1.9,1.8v2.76c0,1.17-.66,1.8-1.9,1.8h-1.93v-6.35Zm1.91,5.25c.45,0,.64-.2,.64-.67v-2.8c0-.47-.19-.67-.64-.67h-.64v4.14h.64Z"/>
    <path class="cls-3" d="M94.56,108.98v-2.87c0-1.15,.68-1.83,1.92-1.83s1.92,.68,1.92,1.83v2.87c0,1.15-.68,1.83-1.92,1.83s-1.92-.68-1.92-1.83Zm2.58,.05v-2.96c0-.43-.23-.68-.65-.68s-.65,.25-.65,.68v2.96c0,.43,.23,.68,.65,.68s.65-.25,.65-.68Z"/>
    <path class="cls-3" d="M100.93,104.37h1.27v5.25h2.09v1.11h-3.36v-6.35Z"/>
    <path class="cls-3" d="M107.56,109.57h-1.42l-.21,1.15h-1.21l1.32-6.35h1.72l1.32,6.35h-1.3l-.21-1.15Zm-.2-1.09l-.52-2.84-.51,2.84h1.03Z"/>
    <path class="cls-3" d="M111.37,104.37h1.27v6.35h-1.27v-6.35Z"/>
    <path class="cls-3" d="M113.64,104.37h1.57l1.27,3.68v-3.68h1.13v6.35h-1.28l-1.56-4.52v4.52h-1.13v-6.35Z"/>
    <path class="cls-3" d="M118.61,104.37h1.93c1.23,0,1.9,.63,1.9,1.8v2.76c0,1.17-.66,1.8-1.9,1.8h-1.93v-6.35Zm1.91,5.25c.45,0,.64-.2,.64-.67v-2.8c0-.47-.19-.67-.64-.67h-.64v4.14h.64Z"/>
    <path class="cls-3" d="M123.28,108.98v-4.61h1.27v4.68c0,.44,.22,.65,.64,.65s.64-.22,.64-.65v-4.68h1.22v4.61c0,1.15-.65,1.83-1.9,1.83s-1.89-.68-1.89-1.83Z"/>
    <path class="cls-3" d="M127.81,109.07v-.28h1.2v.28c0,.39,.2,.67,.65,.67,.4,0,.66-.25,.66-.67,0-.54-.22-.68-1.08-1.1-1.09-.53-1.41-1.07-1.41-1.96,0-1.03,.65-1.73,1.88-1.73s1.83,.7,1.83,1.75v.18h-1.2v-.17c0-.4-.18-.69-.63-.69-.39,0-.62,.25-.62,.64,0,.49,.24,.64,1.1,1.04,1.12,.54,1.39,1.1,1.39,2.01,0,1.07-.67,1.77-1.91,1.77s-1.87-.7-1.87-1.74Z"/>
    <path class="cls-3" d="M133.41,105.48h-1.33v-1.11h3.92v1.11h-1.33v5.25h-1.27v-5.25Z"/>
    <path class="cls-3" d="M136.71,104.37h1.88c1.27,0,1.88,.52,1.88,1.62v.24c0,.67-.26,1.09-.83,1.31v.03c.58,.15,.83,.63,.83,1.53v.74c0,.35,.02,.61,.15,.88h-1.3c-.07-.17-.11-.26-.11-.89v-.83c0-.61-.21-.83-.8-.83h-.44v2.54h-1.27v-6.35Zm1.73,2.7c.53,0,.75-.22,.75-.71v-.24c0-.44-.19-.64-.62-.64h-.6v1.6h.46Z"/>
    <path class="cls-3" d="M141.41,104.37h1.27v6.35h-1.27v-6.35Z"/>
    <path class="cls-3" d="M146.2,109.57h-1.42l-.21,1.15h-1.21l1.32-6.35h1.72l1.32,6.35h-1.3l-.21-1.15Zm-.2-1.09l-.52-2.84-.51,2.84h1.03Z"/>
    <path class="cls-3" d="M150.02,104.37h3.36v1.11h-2.09v1.52h1.63v1.11h-1.63v2.62h-1.27v-6.35Z"/>
    <path class="cls-3" d="M154.08,104.37h3.46v1.11h-2.19v1.47h1.74v1.11h-1.74v1.56h2.19v1.11h-3.46v-6.35Z"/>
    <path class="cls-3" d="M158.32,104.37h1.88c1.27,0,1.88,.52,1.88,1.62v.24c0,.67-.26,1.09-.83,1.31v.03c.58,.15,.83,.63,.83,1.53v.74c0,.35,.02,.61,.15,.88h-1.3c-.07-.17-.11-.26-.11-.89v-.83c0-.61-.21-.83-.8-.83h-.44v2.54h-1.27v-6.35Zm1.73,2.7c.53,0,.75-.22,.75-.71v-.24c0-.44-.19-.64-.62-.64h-.6v1.6h.46Z"/>
    <path class="cls-3" d="M163.01,104.37h1.88c1.27,0,1.88,.52,1.88,1.62v.24c0,.67-.26,1.09-.83,1.31v.03c.58,.15,.83,.63,.83,1.53v.74c0,.35,.02,.61,.15,.88h-1.3c-.07-.17-.11-.26-.11-.89v-.83c0-.61-.21-.83-.8-.83h-.44v2.54h-1.27v-6.35Zm1.73,2.7c.53,0,.75-.22,.75-.71v-.24c0-.44-.19-.64-.62-.64h-.6v1.6h.46Z"/>
    <path class="cls-3" d="M167.71,104.37h3.46v1.11h-2.19v1.47h1.74v1.11h-1.74v1.56h2.19v1.11h-3.46v-6.35Z"/>
    <path class="cls-3" d="M172.98,105.48h-1.33v-1.11h3.92v1.11h-1.33v5.25h-1.27v-5.25Z"/>
    <path class="cls-3" d="M176.29,104.37h3.46v1.11h-2.19v1.47h1.74v1.11h-1.74v1.56h2.19v1.11h-3.46v-6.35Z"/>
    <path class="cls-3" d="M180.52,104.37h1.88c1.27,0,1.88,.52,1.88,1.62v.24c0,.67-.26,1.09-.83,1.31v.03c.58,.15,.83,.63,.83,1.53v.74c0,.35,.02,.61,.15,.88h-1.3c-.07-.17-.11-.26-.11-.89v-.83c0-.61-.21-.83-.8-.83h-.44v2.54h-1.27v-6.35Zm1.73,2.7c.53,0,.75-.22,.75-.71v-.24c0-.44-.19-.64-.62-.64h-.6v1.6h.46Z"/>
    <path class="cls-3" d="M187.78,109.57h-1.42l-.21,1.15h-1.21l1.32-6.35h1.72l1.32,6.35h-1.3l-.21-1.15Zm-.2-1.09l-.52-2.84-.51,2.84h1.03Z"/>
  </g>
</svg>